# xmcd
#
# Track frame offsets:
#	150
#	40538
#	105592
#	154555
#	188825
#	213978
#	254678
#	293383
#	333524
#
# Disc length: 4622 seconds
#
# Revision: 0
# Processed by: cddbd v1.5.2PL0 Copyright (c) Steve Scherf et al.
# Submitted via: audiograbber 1.83.01
#
DISCID=74120c09
DTITLE=Grateful Dead - 93-03-14 Richfield Coliseum, Richfield OH
DYEAR=1900
DGENRE=
TTITLE0=Corinna
TTITLE1=Terrapin Station
TTITLE2=Drums
TTITLE3=Space
TTITLE4=I Need A Miracle
TTITLE5=Stella Blue
TTITLE6=Throwing Stones
TTITLE7=Turn On Your Lovelight
TTITLE8=I Fought The Law
EXTD=
EXTT0=
EXTT1=
EXTT2=
EXTT3=
EXTT4=
EXTT5=
EXTT6=
EXTT7=
EXTT8=
PLAYORDER=
